<svg xmlns="http://www.w3.org/2000/svg" xmlns:xlink="http://www.w3.org/1999/xlink" width="1014.637" height="901.127" viewBox="0 0 1014.637 901.127">
  <defs>
    <filter id="Ellipse_1-2" x="618.208" y="741.903" width="73.68" height="74.36" filterUnits="userSpaceOnUse">
      <feOffset dy="3" input="SourceAlpha"/>
      <feGaussianBlur stdDeviation="3" result="blur"/>
      <feFlood flood-opacity="0.161"/>
      <feComposite operator="in" in2="blur"/>
      <feComposite in="SourceGraphic"/>
    </filter>
    <clipPath id="clip-path">
      <rect id="Rectangle_200" data-name="Rectangle 200" width="14.679" height="14.862" fill="none"/>
    </clipPath>
    <clipPath id="clip-path-2">
      <rect id="Rectangle_201" data-name="Rectangle 201" width="14.679" height="11.748" fill="none"/>
    </clipPath>
  </defs>
  <g id="Artboard_1" data-name="Artboard 1" transform="translate(-56.11 -83.162)">
    <g id="freepik--background-simple--inject-250" transform="translate(124.258 83.162)">
      <path id="Path_95" data-name="Path 95" d="M102.682,194.621c73.263-155.553,332.561-133.6,432.669-24.2S668.008,349.886,758.3,309.094s205.45-29.933,211.939,99.847S871.156,692.18,703.227,737.577,535.35,943.576,313.1,911.236C191.931,893.548,189.184,762.46,206.3,654.031S18.089,375,102.682,194.621Z" transform="translate(-82.155 -83.162)" fill="#407bff"/>
      <path id="Path_96" data-name="Path 96" d="M102.682,194.621c73.263-155.553,332.561-133.6,432.669-24.2S668.008,349.886,758.3,309.094s205.45-29.933,211.939,99.847S871.156,692.18,703.227,737.577,535.35,943.576,313.1,911.236C191.931,893.548,189.184,762.46,206.3,654.031S18.089,375,102.682,194.621Z" transform="translate(-82.155 -83.162)" fill="#fff" opacity="0.9"/>
    </g>
    <g id="freepik--Shadow--inject-250" transform="translate(56.11 925.051)">
      <ellipse id="freepik--path--inject-250" cx="507.319" cy="29.619" rx="507.319" ry="29.619" fill="#f5f5f5"/>
    </g>
    <g id="freepik--Banknotes--inject-250" transform="translate(575.935 472.418)">
      <path id="Path_97" data-name="Path 97" d="M628.211,332.562A1165.136,1165.136,0,0,1,416.848,673.024L254.78,572.419A1165.348,1165.348,0,0,0,466.169,231.93Z" transform="translate(-254.78 -231.93)" fill="#407bff"/>
      <path id="Path_98" data-name="Path 98" d="M628.237,332.519A1165.975,1165.975,0,0,1,416.822,673.008l-70.044-43.487h0l-92-57.093A1165.349,1165.349,0,0,0,466.169,231.94Q547.177,282.308,628.237,332.519Z" transform="translate(-254.78 -231.914)" fill="#fff" opacity="0.4"/>
      <path id="Path_99" data-name="Path 99" d="M472.981,242.939A21.56,21.56,0,0,1,445.219,255.6a19.68,19.68,0,0,1-4.553-2.329A1165.09,1165.09,0,0,1,267.06,532.85a21.586,21.586,0,0,1,8.111,29.436,21.114,21.114,0,0,1-3.035,4.108l101.024,62.8a31.4,31.4,0,0,1,39.039-6.149,1165.249,1165.249,0,0,0,173.607-279.6,31.4,31.4,0,0,1-11.8-37.7v-.209l-101-62.8Zm4.684,229.6c-15.542,24.988-49.426,32-74.309,16.563s-31.4-47.568-15.882-72.556,47.333-33.308,72.242-17.845,33.544,48.824,17.949,73.838Z" transform="translate(-234.929 -214.472)" opacity="0.2"/>
      <g id="Group_251" data-name="Group 251" transform="translate(172.125 198.9)" opacity="0.2">
        <g id="layer1">
          <path id="path2990" d="M322.1,326.637a7.352,7.352,0,0,1,6.2-3.716,16.092,16.092,0,0,1,9.079,2.3l12.193,7.379,1.962-3.271,8.87-2.093-5.233,8.713,15.7,9.55a5.652,5.652,0,0,0,4.213.628,6.934,6.934,0,0,0,4.265-3.611A14.914,14.914,0,0,0,380,331.19a17.086,17.086,0,0,0-6.594-10.649l-.706,1.465q-4.5,7.457-12.4,2.617a7.849,7.849,0,0,1-2.3-11.7,10.466,10.466,0,0,1,8.19-4.841,16.17,16.17,0,0,1,10.911,2.46A25.511,25.511,0,0,1,388.113,326.4a24.229,24.229,0,0,1-2.329,20.147,14.181,14.181,0,0,1-7.248,5.442,13.921,13.921,0,0,1-8.478.916l-18.316-11.094-3.454,5.521-8.818,1.962,6.594-10.911-11.042-6.751c-2.25-1.361-4.37-.785-6.411,1.675a4.291,4.291,0,0,0-.89,2.8,30.061,30.061,0,0,1-5.364-.549l-.576-.34c-1.021-.628-1.387-1.91-1.151-3.873a12.166,12.166,0,0,1,1.465-4.814" transform="translate(-320.564 -307.947)"/>
        </g>
      </g>
      <path id="Path_100" data-name="Path 100" d="M605.751,270.38A1165.979,1165.979,0,0,1,394.336,610.869l-70.044-43.487h0l-55.6-93.907S490.441,381.582,605.751,270.38Z" transform="translate(-232.294 -169.775)" opacity="0.2"/>
      <path id="Path_101" data-name="Path 101" d="M716.855,439.4A1165.475,1165.475,0,0,1,369.746,639.829Q322.1,557.2,274.4,474.621A1165.506,1165.506,0,0,0,621.509,274.3Q669.208,356.825,716.855,439.4Z" transform="translate(-223.064 -163.438)" fill="#407bff"/>
      <path id="Path_102" data-name="Path 102" d="M716.855,439.4A1165.475,1165.475,0,0,1,369.746,639.829Q322.1,557.2,274.4,474.621A1165.506,1165.506,0,0,0,621.509,274.3Q669.208,356.825,716.855,439.4Z" transform="translate(-223.064 -163.438)" fill="#fff" opacity="0.4"/>
      <path id="Path_103" data-name="Path 103" d="M614.738,292.459a21.586,21.586,0,0,1-30.456-1.936,21.171,21.171,0,0,1-2.9-4.212,1164.533,1164.533,0,0,1-285.2,164.475,21.586,21.586,0,0,1-6.777,29.776,22.92,22.92,0,0,1-4.579,2.172l59.421,102.96a31.4,31.4,0,0,1,37.312,13.083A1164.533,1164.533,0,0,0,666.755,434.3a31.4,31.4,0,0,1,7.4-38.908l.183-.157L614.973,292.328ZM510.443,497.071c-25.511,14.679-58.663,4.867-73.263-20.514s-5.233-56.752,20.278-71.431,57.564-7.012,72.085,18.316S535.98,482.419,510.443,497.071Z" transform="translate(-206.22 -144.023)" opacity="0.2"/>
      <g id="Group_252" data-name="Group 252" transform="translate(245.144 287.18)" opacity="0.2">
        <g id="layer1-2" data-name="layer1">
          <path id="path2990-2" data-name="path2990" d="M353.441,342.638a7.326,7.326,0,0,1,7.222,0,16.067,16.067,0,0,1,6.646,6.62l6.724,12.559,3.349-1.805,8.687,2.617-8.949,4.814,8.713,16.275a5.626,5.626,0,0,0,3.3,2.617,6.908,6.908,0,0,0,5.495-.942,14.81,14.81,0,0,0,6.358-9.42,17.216,17.216,0,0,0-.235-12.507l-1.387.89q-7.666,4.108-12.01-4.029a8.556,8.556,0,0,1-.837-5.861,8.373,8.373,0,0,1,4.841-5.364,10.309,10.309,0,0,1,9.472-.131,16.354,16.354,0,0,1,8.111,7.64,25.643,25.643,0,0,1,1.387,19.284,24.2,24.2,0,0,1-12.3,16.144,14.284,14.284,0,0,1-9,.994,14,14,0,0,1-7.85-3.558L371.05,370.583l-5.652,3.323-8.582-2.774,11.225-6.044-6.1-11.356c-1.23-2.3-3.349-2.93-6.358-1.832q-1.936,1.02-2.2,1.962a31.22,31.22,0,0,1-4.343-3.218l-.314-.6c-.549-1.047-.235-2.355.994-3.925a11.879,11.879,0,0,1,3.715-3.375" transform="translate(-348.47 -341.686)"/>
        </g>
      </g>
    </g>
    <g id="freepik--Coins--inject-250" transform="translate(818.828 749.194)">
      <rect id="Rectangle_69" data-name="Rectangle 69" width="102.123" height="20.043" transform="translate(90.061 179.468)" fill="#407bff"/>
      <rect id="Rectangle_70" data-name="Rectangle 70" width="22.502" height="20.043" transform="translate(90.061 179.468)" opacity="0.2"/>
      <rect id="Rectangle_71" data-name="Rectangle 71" width="8.19" height="20.043" transform="translate(115.18 179.441)" opacity="0.2"/>
      <rect id="Rectangle_72" data-name="Rectangle 72" width="5.599" height="20.043" transform="translate(128.262 179.441)" opacity="0.2"/>
      <rect id="Rectangle_73" data-name="Rectangle 73" width="2.8" height="20.043" transform="translate(141.345 179.441)" opacity="0.2"/>
      <rect id="Rectangle_74" data-name="Rectangle 74" width="1.413" height="20.043" transform="translate(159.661 179.441)" opacity="0.2"/>
      <rect id="Rectangle_75" data-name="Rectangle 75" width="102.123" height="20.043" transform="translate(94.875 159.53)" fill="#407bff"/>
      <rect id="Rectangle_76" data-name="Rectangle 76" width="22.502" height="20.043" transform="translate(94.875 159.53)" opacity="0.2"/>
      <rect id="Rectangle_77" data-name="Rectangle 77" width="8.19" height="20.043" transform="translate(119.994 159.504)" opacity="0.2"/>
      <rect id="Rectangle_78" data-name="Rectangle 78" width="5.599" height="20.043" transform="translate(133.077 159.504)" opacity="0.2"/>
      <rect id="Rectangle_79" data-name="Rectangle 79" width="2.8" height="20.043" transform="translate(146.159 159.504)" opacity="0.2"/>
      <rect id="Rectangle_80" data-name="Rectangle 80" width="1.413" height="20.043" transform="translate(164.475 159.504)" opacity="0.2"/>
      <rect id="Rectangle_81" data-name="Rectangle 81" width="102.123" height="20.043" transform="translate(85.77 139.592)" fill="#407bff"/>
      <rect id="Rectangle_82" data-name="Rectangle 82" width="22.502" height="20.043" transform="translate(85.77 139.592)" opacity="0.2"/>
      <rect id="Rectangle_83" data-name="Rectangle 83" width="8.19" height="20.043" transform="translate(110.862 139.566)" opacity="0.2"/>
      <rect id="Rectangle_84" data-name="Rectangle 84" width="5.599" height="20.043" transform="translate(123.945 139.566)" opacity="0.2"/>
      <rect id="Rectangle_85" data-name="Rectangle 85" width="2.8" height="20.043" transform="translate(137.028 139.566)" opacity="0.2"/>
      <rect id="Rectangle_86" data-name="Rectangle 86" width="1.413" height="20.043" transform="translate(155.343 139.566)" opacity="0.2"/>
      <rect id="Rectangle_87" data-name="Rectangle 87" width="102.123" height="20.043" transform="translate(90.061 119.654)" fill="#407bff"/>
      <rect id="Rectangle_88" data-name="Rectangle 88" width="22.502" height="20.043" transform="translate(90.061 119.654)" opacity="0.2"/>
      <rect id="Rectangle_89" data-name="Rectangle 89" width="8.19" height="20.043" transform="translate(115.18 119.628)" opacity="0.2"/>
      <rect id="Rectangle_90" data-name="Rectangle 90" width="5.599" height="20.043" transform="translate(128.262 119.628)" opacity="0.2"/>
      <rect id="Rectangle_91" data-name="Rectangle 91" width="2.8" height="20.043" transform="translate(141.345 119.628)" opacity="0.2"/>
      <rect id="Rectangle_92" data-name="Rectangle 92" width="1.413" height="20.043" transform="translate(159.661 119.628)" opacity="0.2"/>
      <rect id="Rectangle_93" data-name="Rectangle 93" width="102.123" height="20.043" transform="translate(92.651 99.716)" fill="#407bff"/>
      <rect id="Rectangle_94" data-name="Rectangle 94" width="22.502" height="20.043" transform="translate(92.651 99.716)" opacity="0.2"/>
      <rect id="Rectangle_95" data-name="Rectangle 95" width="8.19" height="20.043" transform="translate(117.796 99.69)" opacity="0.2"/>
      <rect id="Rectangle_96" data-name="Rectangle 96" width="5.599" height="20.043" transform="translate(130.879 99.69)" opacity="0.2"/>
      <rect id="Rectangle_97" data-name="Rectangle 97" width="2.8" height="20.043" transform="translate(143.961 99.69)" opacity="0.2"/>
      <rect id="Rectangle_98" data-name="Rectangle 98" width="1.413" height="20.043" transform="translate(162.277 99.69)" opacity="0.2"/>
      <rect id="Rectangle_99" data-name="Rectangle 99" width="102.123" height="20.043" transform="translate(90.035 79.778)" fill="#407bff"/>
      <rect id="Rectangle_100" data-name="Rectangle 100" width="22.502" height="20.043" transform="translate(90.035 79.778)" opacity="0.2"/>
      <rect id="Rectangle_101" data-name="Rectangle 101" width="8.19" height="20.043" transform="translate(115.18 79.752)" opacity="0.2"/>
      <rect id="Rectangle_102" data-name="Rectangle 102" width="5.599" height="20.043" transform="translate(128.262 79.752)" opacity="0.2"/>
      <rect id="Rectangle_103" data-name="Rectangle 103" width="2.8" height="20.043" transform="translate(141.345 79.752)" opacity="0.2"/>
      <rect id="Rectangle_104" data-name="Rectangle 104" width="1.413" height="20.043" transform="translate(159.661 79.752)" opacity="0.2"/>
      <rect id="Rectangle_105" data-name="Rectangle 105" width="102.123" height="20.043" transform="translate(90.035 59.84)" fill="#407bff"/>
      <rect id="Rectangle_106" data-name="Rectangle 106" width="22.502" height="20.043" transform="translate(90.035 59.84)" opacity="0.2"/>
      <rect id="Rectangle_107" data-name="Rectangle 107" width="8.19" height="20.043" transform="translate(115.18 59.814)" opacity="0.2"/>
      <rect id="Rectangle_108" data-name="Rectangle 108" width="5.599" height="20.043" transform="translate(128.262 59.814)" opacity="0.2"/>
      <rect id="Rectangle_109" data-name="Rectangle 109" width="2.8" height="20.043" transform="translate(141.345 59.814)" opacity="0.2"/>
      <rect id="Rectangle_110" data-name="Rectangle 110" width="1.413" height="20.043" transform="translate(159.661 59.814)" opacity="0.2"/>
      <rect id="Rectangle_111" data-name="Rectangle 111" width="102.123" height="20.043" transform="translate(95.268 39.902)" fill="#407bff"/>
      <rect id="Rectangle_112" data-name="Rectangle 112" width="22.502" height="20.043" transform="translate(95.268 39.902)" opacity="0.2"/>
      <rect id="Rectangle_113" data-name="Rectangle 113" width="8.19" height="20.043" transform="translate(120.413 39.876)" opacity="0.2"/>
      <rect id="Rectangle_114" data-name="Rectangle 114" width="5.599" height="20.043" transform="translate(133.495 39.876)" opacity="0.2"/>
      <rect id="Rectangle_115" data-name="Rectangle 115" width="2.8" height="20.043" transform="translate(146.578 39.876)" opacity="0.2"/>
      <rect id="Rectangle_116" data-name="Rectangle 116" width="1.413" height="20.043" transform="translate(164.894 39.876)" opacity="0.2"/>
      <rect id="Rectangle_117" data-name="Rectangle 117" width="102.123" height="20.043" transform="translate(90.035 19.964)" fill="#407bff"/>
      <rect id="Rectangle_118" data-name="Rectangle 118" width="22.502" height="20.043" transform="translate(90.035 19.964)" opacity="0.2"/>
      <rect id="Rectangle_119" data-name="Rectangle 119" width="8.19" height="20.043" transform="translate(115.18 19.938)" opacity="0.2"/>
      <rect id="Rectangle_120" data-name="Rectangle 120" width="5.599" height="20.043" transform="translate(128.262 19.938)" opacity="0.2"/>
      <rect id="Rectangle_121" data-name="Rectangle 121" width="2.8" height="20.043" transform="translate(141.345 19.938)" opacity="0.2"/>
      <rect id="Rectangle_122" data-name="Rectangle 122" width="1.413" height="20.043" transform="translate(159.661 19.938)" opacity="0.2"/>
      <rect id="Rectangle_123" data-name="Rectangle 123" width="102.123" height="20.043" transform="translate(84.802 0.026)" fill="#407bff"/>
      <rect id="Rectangle_124" data-name="Rectangle 124" width="22.502" height="20.043" transform="translate(84.802 0.026)" opacity="0.2"/>
      <rect id="Rectangle_125" data-name="Rectangle 125" width="8.19" height="20.043" transform="translate(109.947)" opacity="0.2"/>
      <rect id="Rectangle_126" data-name="Rectangle 126" width="5.599" height="20.043" transform="translate(123.029)" opacity="0.2"/>
      <rect id="Rectangle_127" data-name="Rectangle 127" width="2.8" height="20.043" transform="translate(136.112)" opacity="0.2"/>
      <rect id="Rectangle_128" data-name="Rectangle 128" width="1.413" height="20.043" transform="translate(154.427)" opacity="0.2"/>
      <rect id="Rectangle_129" data-name="Rectangle 129" width="102.123" height="20.043" transform="translate(0 179.468)" fill="#407bff"/>
      <rect id="Rectangle_130" data-name="Rectangle 130" width="22.502" height="20.043" transform="translate(0 179.468)" opacity="0.2"/>
      <rect id="Rectangle_131" data-name="Rectangle 131" width="8.19" height="20.043" transform="translate(25.093 179.441)" opacity="0.2"/>
      <rect id="Rectangle_132" data-name="Rectangle 132" width="5.599" height="20.043" transform="translate(38.175 179.441)" opacity="0.2"/>
      <rect id="Rectangle_133" data-name="Rectangle 133" width="2.8" height="20.043" transform="translate(51.258 179.441)" opacity="0.2"/>
      <rect id="Rectangle_134" data-name="Rectangle 134" width="1.413" height="20.043" transform="translate(69.574 179.441)" opacity="0.2"/>
      <rect id="Rectangle_135" data-name="Rectangle 135" width="102.123" height="20.043" transform="translate(5.233 159.53)" fill="#407bff"/>
      <rect id="Rectangle_136" data-name="Rectangle 136" width="22.502" height="20.043" transform="translate(5.233 159.53)" opacity="0.2"/>
      <rect id="Rectangle_137" data-name="Rectangle 137" width="8.19" height="20.043" transform="translate(30.326 159.504)" opacity="0.2"/>
      <rect id="Rectangle_138" data-name="Rectangle 138" width="5.599" height="20.043" transform="translate(43.408 159.504)" opacity="0.2"/>
      <rect id="Rectangle_139" data-name="Rectangle 139" width="2.8" height="20.043" transform="translate(56.491 159.504)" opacity="0.2"/>
      <rect id="Rectangle_140" data-name="Rectangle 140" width="1.413" height="20.043" transform="translate(74.807 159.504)" opacity="0.2"/>
      <rect id="Rectangle_141" data-name="Rectangle 141" width="102.123" height="20.043" transform="translate(0 139.592)" fill="#407bff"/>
      <rect id="Rectangle_142" data-name="Rectangle 142" width="22.502" height="20.043" transform="translate(0 139.592)" opacity="0.2"/>
      <rect id="Rectangle_143" data-name="Rectangle 143" width="8.19" height="20.043" transform="translate(25.093 139.566)" opacity="0.2"/>
      <rect id="Rectangle_144" data-name="Rectangle 144" width="5.599" height="20.043" transform="translate(38.175 139.566)" opacity="0.2"/>
      <rect id="Rectangle_145" data-name="Rectangle 145" width="2.8" height="20.043" transform="translate(51.258 139.566)" opacity="0.2"/>
      <rect id="Rectangle_146" data-name="Rectangle 146" width="1.413" height="20.043" transform="translate(69.574 139.566)" opacity="0.2"/>
      <rect id="Rectangle_147" data-name="Rectangle 147" width="102.123" height="20.043" transform="translate(2.617 119.654)" fill="#407bff"/>
      <rect id="Rectangle_148" data-name="Rectangle 148" width="22.502" height="20.043" transform="translate(2.617 119.654)" opacity="0.2"/>
      <rect id="Rectangle_149" data-name="Rectangle 149" width="8.19" height="20.043" transform="translate(27.709 119.628)" opacity="0.2"/>
      <rect id="Rectangle_150" data-name="Rectangle 150" width="5.599" height="20.043" transform="translate(40.792 119.628)" opacity="0.2"/>
      <rect id="Rectangle_151" data-name="Rectangle 151" width="2.8" height="20.043" transform="translate(53.874 119.628)" opacity="0.2"/>
      <rect id="Rectangle_152" data-name="Rectangle 152" width="1.413" height="20.043" transform="translate(72.19 119.628)" opacity="0.2"/>
      <rect id="Rectangle_153" data-name="Rectangle 153" width="102.123" height="20.043" transform="translate(0 99.716)" fill="#407bff"/>
      <rect id="Rectangle_154" data-name="Rectangle 154" width="22.502" height="20.043" transform="translate(0 99.716)" opacity="0.2"/>
      <rect id="Rectangle_155" data-name="Rectangle 155" width="8.19" height="20.043" transform="translate(25.119 99.69)" opacity="0.2"/>
      <rect id="Rectangle_156" data-name="Rectangle 156" width="5.599" height="20.043" transform="translate(38.201 99.69)" opacity="0.2"/>
      <rect id="Rectangle_157" data-name="Rectangle 157" width="2.8" height="20.043" transform="translate(51.284 99.69)" opacity="0.2"/>
      <rect id="Rectangle_158" data-name="Rectangle 158" width="1.413" height="20.043" transform="translate(69.6 99.69)" opacity="0.2"/>
      <rect id="Rectangle_159" data-name="Rectangle 159" width="102.123" height="20.043" transform="translate(7.85 79.778)" fill="#407bff"/>
      <rect id="Rectangle_160" data-name="Rectangle 160" width="22.502" height="20.043" transform="translate(7.85 79.778)" opacity="0.2"/>
      <rect id="Rectangle_161" data-name="Rectangle 161" width="8.19" height="20.043" transform="translate(32.968 79.752)" opacity="0.2"/>
      <rect id="Rectangle_162" data-name="Rectangle 162" width="5.599" height="20.043" transform="translate(46.051 79.752)" opacity="0.2"/>
      <rect id="Rectangle_163" data-name="Rectangle 163" width="2.8" height="20.043" transform="translate(59.134 79.752)" opacity="0.2"/>
      <rect id="Rectangle_164" data-name="Rectangle 164" width="1.413" height="20.043" transform="translate(77.449 79.752)" opacity="0.2"/>
    </g>
    <g id="freepik--Device--inject-250" transform="translate(342.908 120.678)">
      <rect id="Rectangle_165" data-name="Rectangle 165" width="435.626" height="828.026" rx="10.4" fill="#263238"/>
      <path id="Path_104" data-name="Path 104" d="M577.62,113.608V887.734a10.649,10.649,0,0,1-10.649,10.649H181.059a9.524,9.524,0,0,1-9.655-9.393V112.719a8.608,8.608,0,0,1,8.242-8.949h96.471a6.8,6.8,0,0,1,6.2,4.343l4,9.838a6.751,6.751,0,0,0,6.2,4.291H456.71a6.751,6.751,0,0,0,6.2-4.239l4-9.864a6.777,6.777,0,0,1,6.2-4.37H568.07a9.76,9.76,0,0,1,9.55,9.838Z" transform="translate(-156.543 -87.364)" fill="#6b7385"/>
      <rect id="Rectangle_166" data-name="Rectangle 166" width="406.242" height="730.43" transform="translate(14.836 48.641)" fill="#fff" opacity="0.7"/>
      <circle id="Ellipse_10" data-name="Ellipse 10" cx="5.573" cy="5.573" r="5.573" transform="translate(203.2 11.801)" fill="#fff" opacity="0.6"/>
      <path id="Path_105" data-name="Path 105" d="M256.429,106.355a3.585,3.585,0,1,1-3.585-3.585h0a3.558,3.558,0,0,1,3.558,3.558Z" transform="translate(-30.675 -88.981)" fill="#fff" opacity="0.6"/>
      <rect id="Rectangle_167" data-name="Rectangle 167" width="5.024" height="6.698" transform="translate(60.651 31.267)" fill="#fff" opacity="0.6"/>
      <rect id="Rectangle_168" data-name="Rectangle 168" width="5.024" height="8.922" transform="translate(52.488 29.043)" fill="#fff" opacity="0.6"/>
      <rect id="Rectangle_169" data-name="Rectangle 169" width="5.024" height="11.146" transform="translate(44.298 26.793)" fill="#fff" opacity="0.6"/>
      <rect id="Rectangle_170" data-name="Rectangle 170" width="5.024" height="13.397" transform="translate(36.134 24.569)" fill="#fff" opacity="0.6"/>
      <rect id="Rectangle_171" data-name="Rectangle 171" width="2.983" height="6.698" transform="translate(373.195 28.834)" fill="#fff" opacity="0.6"/>
      <rect id="Rectangle_172" data-name="Rectangle 172" width="23.706" height="11.565" transform="translate(378.193 26.375)" fill="#fff" opacity="0.6"/>
      <rect id="Rectangle_173" data-name="Rectangle 173" width="406.949" height="65.936" transform="translate(14.339 48.72)" fill="#263238"/>
      <g id="Group_253" data-name="Group 253" transform="translate(112.877 66.44)" opacity="0.7">
        <path id="Path_106" data-name="Path 106" d="M212.942,127.188v6.7h10.623v3.428H212.942v8.425H208.86V123.76h16.066v3.428Z" transform="translate(-208.86 -121.49)" fill="#fff"/>
        <path id="Path_107" data-name="Path 107" d="M216,125.267a2.407,2.407,0,0,1,2.46-2.355h.157a2.329,2.329,0,0,1,2.617,2.015.734.734,0,0,1,0,.236,2.617,2.617,0,0,1-5.024,0Zm.523,5.233h3.925v16.772h-3.925Z" transform="translate(-197.318 -122.892)" fill="#fff"/>
        <path id="Path_108" data-name="Path 108" d="M236.216,133.044v9.6h-3.925v-9.105c0-2.983-1.465-4.422-3.977-4.422a4.422,4.422,0,0,0-4.71,4.16,3.375,3.375,0,0,0,0,.89v8.478H219.68V125.874h3.742v2.172a7.17,7.17,0,0,1,5.756-2.355,6.567,6.567,0,0,1,7.039,6.07A7.237,7.237,0,0,1,236.216,133.044Z" transform="translate(-191.369 -118.397)" fill="#fff"/>
        <path id="Path_109" data-name="Path 109" d="M242.65,132.826v9.812H238.96V140.6a5.965,5.965,0,0,1-5.233,2.25c-3.82,0-6.227-2.093-6.227-5.024s1.858-4.971,6.96-4.971h4.317v-.262c0-2.276-1.361-3.637-4.16-3.637a8.347,8.347,0,0,0-5.1,1.675L228,127.75a12.036,12.036,0,0,1,7.091-2.067C239.85,125.683,242.65,127.985,242.65,132.826Zm-3.925,4.579v-1.962H234.7c-2.617,0-3.4,1.02-3.4,2.224S232.5,140,234.486,140A4.239,4.239,0,0,0,238.725,137.4Z" transform="translate(-178.728 -118.389)" fill="#fff"/>
        <path id="Path_110" data-name="Path 110" d="M251.769,133.045v9.6h-3.977v-9.105c0-2.983-1.465-4.422-3.977-4.422a4.422,4.422,0,0,0-4.71,4.16,3.376,3.376,0,0,0,0,.89v8.478H235.18V125.876h3.742v2.172a7.222,7.222,0,0,1,5.783-2.355,6.567,6.567,0,0,1,7.065,6.018,7.583,7.583,0,0,1,0,1.334Z" transform="translate(-166.313 -118.399)" fill="#fff"/>
        <path id="Path_111" data-name="Path 111" d="M243,134.331a8.478,8.478,0,0,1,8.347-8.608h.706a7.536,7.536,0,0,1,7.169,3.9l-3.009,1.753a4.814,4.814,0,0,0-4.186-2.329,5.233,5.233,0,1,0,0,10.466,4.814,4.814,0,0,0,4.186-2.329l3.009,1.753a7.64,7.64,0,0,1-7.169,3.925,8.477,8.477,0,0,1-9.027-7.85A5.9,5.9,0,0,1,243,134.331Z" transform="translate(-153.672 -118.35)" fill="#fff"/>
        <path id="Path_112" data-name="Path 112" d="M266.88,135.521H253.8a5.076,5.076,0,0,0,5.442,4,6.175,6.175,0,0,0,4.553-1.805l2.093,2.407a9.42,9.42,0,0,1-16.013-5.861,8.347,8.347,0,0,1,8.111-8.582h.549a8.19,8.19,0,0,1,8.477,7.85,3.932,3.932,0,0,1,0,.785A7.7,7.7,0,0,0,266.88,135.521ZM253.8,132.9h9.5a4.553,4.553,0,0,0-4.736-4.082,4.631,4.631,0,0,0-4.867,4.082Z" transform="translate(-142.568 -118.389)" fill="#fff"/>
        <path id="Path_113" data-name="Path 113" d="M277.448,140.663H266.484l-2.172,5.076H260.1l9.89-21.979h4.029l9.917,21.979h-4.291Zm-1.334-3.218-4.134-9.6-4.134,9.629Z" transform="translate(-126.029 -121.49)" fill="#fff"/>
        <path id="Path_114" data-name="Path 114" d="M287.922,134.307a8.164,8.164,0,0,1-7.719,8.582h-.785a6.829,6.829,0,0,1-5.364-2.25v8.137H270.13V125.908h3.742v2.2a6.908,6.908,0,0,1,5.547-2.381,8.164,8.164,0,0,1,8.5,7.85,3.917,3.917,0,0,1,0,.733Zm-3.977,0A4.971,4.971,0,1,0,279,139.54a4.841,4.841,0,0,0,4.945-4.762A2.828,2.828,0,0,0,283.945,134.307Z" transform="translate(-109.815 -118.326)" fill="#fff"/>
        <path id="Path_115" data-name="Path 115" d="M296.162,134.307a8.164,8.164,0,0,1-7.719,8.582h-.785a6.907,6.907,0,0,1-5.39-2.25v8.137h-3.9V125.908h3.716v2.2a6.96,6.96,0,0,1,5.573-2.381,8.163,8.163,0,0,1,8.5,7.85A3.922,3.922,0,0,1,296.162,134.307Zm-4,0a4.971,4.971,0,1,0-4.945,5.233,4.841,4.841,0,0,0,4.945-4.762A2.828,2.828,0,0,0,292.159,134.307Z" transform="translate(-96.495 -118.326)" fill="#fff"/>
      </g>
      <g id="Group_254" data-name="Group 254" transform="translate(29.512 69.232)" opacity="0.7">
        <path id="Path_116" data-name="Path 116" d="M189.43,148.661a2.617,2.617,0,0,1-1.832-.759l-9.838-9.812a2.616,2.616,0,0,1,0-3.689h0l9.838-9.812a2.617,2.617,0,0,1,3.689,3.689l-7.98,7.98,7.98,7.85a2.711,2.711,0,0,1-1.858,4.553Z" transform="translate(-176.999 -123.96)" fill="#fff"/>
      </g>
      <g id="Group_255" data-name="Group 255" transform="translate(400.172 68.972)" opacity="0.7">
        <path id="Path_117" data-name="Path 117" d="M324.626,126.843a2.983,2.983,0,1,1-2.983-2.983A2.983,2.983,0,0,1,324.626,126.843Z" transform="translate(-318.66 -123.86)" fill="#fff"/>
        <path id="Path_118" data-name="Path 118" d="M324.626,130.493a2.983,2.983,0,1,1-2.983-2.983A2.983,2.983,0,0,1,324.626,130.493Z" transform="translate(-318.66 -117.96)" fill="#fff"/>
        <path id="Path_119" data-name="Path 119" d="M324.626,134.153a2.983,2.983,0,1,1-2.983-2.983A2.983,2.983,0,0,1,324.626,134.153Z" transform="translate(-318.66 -112.043)" fill="#fff"/>
      </g>
      <path id="Path_120" data-name="Path 120" d="M236.929,179.9v3.532h-2.617v-3.48a13.815,13.815,0,0,1-7.693-2.617l1.413-3.166a11.958,11.958,0,0,0,6.28,2.381v-6.28c-3.48-.837-7.222-1.962-7.222-6.332,0-3.192,2.329-5.992,7.222-6.463V153.92h2.617v3.48a13.5,13.5,0,0,1,6.384,1.962l-1.308,3.166a12.822,12.822,0,0,0-5.076-1.7v6.384c3.48.863,7.274,1.962,7.274,6.306C244.2,176.658,241.848,179.4,236.929,179.9Zm-2.617-13.423v-5.573c-2.224.34-3.166,1.465-3.166,2.852s1.387,2.2,3.218,2.617Zm5.835,7.248c0-1.544-1.387-2.25-3.271-2.8V176.5c2.355-.366,3.323-1.439,3.323-2.774Z" transform="translate(-67.273 -6.295)" fill="#407bff"/>
      <path id="Path_121" data-name="Path 121" d="M245.828,155.36v21.979h-3.951V158.788H237.22V155.36Z" transform="translate(-50.138 -3.968)" fill="#407bff"/>
      <path id="Path_122" data-name="Path 122" d="M260.09,171.211c0,4.082-3.532,6.62-9,6.62s-8.949-2.617-8.949-6.62a5.547,5.547,0,0,1,3.506-5.233,5.024,5.024,0,0,1-2.617-4.605c0-3.768,3.3-6.123,8.164-6.123s8.216,2.355,8.216,6.123a4.971,4.971,0,0,1-2.8,4.605,5.469,5.469,0,0,1,3.48,5.233Zm-4.108,0c0-2.172-1.884-3.506-4.893-3.506s-4.841,1.334-4.841,3.506,1.832,3.532,4.841,3.532,4.867-1.439,4.867-3.663Zm-8.975-9.681c0,1.884,1.544,3.087,4.134,3.087s4.213-1.2,4.213-3.087-1.7-3.087-4.213-3.087-4.134,1.125-4.134,3.087Z" transform="translate(-42.185 -4.146)" fill="#407bff"/>
      <path id="Path_123" data-name="Path 123" d="M250.07,164.467a2.617,2.617,0,1,1,2.616,2.617A2.616,2.616,0,0,1,250.07,164.467Z" transform="translate(-29.366 6.524)" fill="#407bff"/>
      <path id="Path_124" data-name="Path 124" d="M261.153,155.36v21.979h-4.082V158.788H252.44V155.36Z" transform="translate(-25.535 -3.968)" fill="#407bff"/>
      <path id="Path_125" data-name="Path 125" d="M274.027,174.006v3.454h-16.2v-2.617l8.739-8.268c2.119-2.041,2.617-3.323,2.617-4.553,0-2.015-1.387-3.166-4.082-3.166a6.2,6.2,0,0,0-5.233,2.276l-2.852-2.2a10.231,10.231,0,0,1,8.347-3.637c4.762,0,7.85,2.433,7.85,6.306a8.818,8.818,0,0,1-3.637,6.934l-5.887,5.6Z" transform="translate(-18.131 -4.089)" fill="#407bff"/>
      <path id="Path_126" data-name="Path 126" d="M282.33,171.211c0,4.082-3.559,6.62-9,6.62s-8.949-2.617-8.949-6.62a5.547,5.547,0,0,1,3.506-5.233,5.024,5.024,0,0,1-2.617-4.605c0-3.768,3.3-6.123,8.164-6.123s8.216,2.355,8.216,6.123a5.05,5.05,0,0,1-2.8,4.605A5.469,5.469,0,0,1,282.33,171.211Zm-4.108,0c0-2.172-1.884-3.506-4.893-3.506s-4.841,1.334-4.841,3.506,1.805,3.532,4.841,3.532,4.893-1.439,4.893-3.663Zm-9.053-9.55c0,1.884,1.57,3.087,4.16,3.087s4.186-1.2,4.186-3.087-1.675-3.088-4.186-3.088-4.16.994-4.16,2.957Z" transform="translate(-6.234 -4.146)" fill="#407bff"/>
      <path id="Path_127" data-name="Path 127" d="M242.414,222.527v1.936h-1.439v-1.936a7.85,7.85,0,0,1-4.265-1.439l.785-1.753a6.751,6.751,0,0,0,3.48,1.308v-3.48c-1.936-.471-4-1.1-4-3.506,0-1.779,1.282-3.323,4-3.585V208.11h1.439v1.936a7.3,7.3,0,0,1,3.532,1.047l-.706,1.753a7.666,7.666,0,0,0-2.826-.942v3.532c1.936.471,4.029,1.073,4.029,3.506C246.443,220.7,245.135,222.239,242.414,222.527Zm-1.439-7.457v-3.114c-1.23.209-1.753.837-1.753,1.6S240.085,214.782,240.975,215.07Zm3.245,4.029c0-.863-.759-1.256-1.805-1.57v3.087c1.256-.183,1.805-.785,1.805-1.518Z" transform="translate(-50.963 81.304)"/>
      <path id="Path_128" data-name="Path 128" d="M247.407,208.91v12.167h-2.25V210.794H242.54V208.91Z" transform="translate(-41.538 82.597)"/>
      <path id="Path_129" data-name="Path 129" d="M249.937,208.91v12.167h-2.25V210.794H245.07V208.91Z" transform="translate(-37.449 82.597)"/>
      <path id="Path_130" data-name="Path 130" d="M257.043,217.335c0,2.146-1.544,3.925-4.814,3.925a7.849,7.849,0,0,1-4.579-1.413l.968-1.753a5.7,5.7,0,0,0,3.585,1.2c1.622,0,2.617-.733,2.617-1.858s-.733-1.91-3.271-1.91h-2.983l.628-6.62h7.222v1.884h-5.233l-.262,2.826h1.151C255.6,213.62,257.043,215.19,257.043,217.335Z" transform="translate(-33.278 82.597)"/>
      <path id="Path_131" data-name="Path 131" d="M254.538,214.022a3.716,3.716,0,0,1-.392,1.491l-.89,2.46h-1.413l.706-2.616a1.308,1.308,0,0,1-.811-1.282,1.414,1.414,0,1,1,2.8-.392.993.993,0,0,1,0,.392Z" transform="translate(-26.691 88.344)"/>
      <path id="Path_132" data-name="Path 132" d="M262.636,219.3v1.91h-8.975v-1.465l4.841-4.579a3.323,3.323,0,0,0,1.387-2.617c0-1.1-.759-1.753-2.25-1.753a3.506,3.506,0,0,0-2.878,1.282l-1.57-1.23a5.625,5.625,0,0,1,4.631-2.015c2.617,0,4.343,1.334,4.343,3.506a4.893,4.893,0,0,1-2.015,3.846l-3.244,3.088Z" transform="translate(-24.322 82.463)"/>
      <path id="Path_133" data-name="Path 133" d="M257.28,215.093c0-4,2.2-6.253,5.076-6.253s5.1,2.25,5.1,6.253-2.2,6.28-5.1,6.28S257.28,219.1,257.28,215.093Zm7.85,0c0-2.93-1.151-4.291-2.826-4.291s-2.8,1.361-2.8,4.291,1.151,4.317,2.8,4.317,2.878-1.361,2.878-4.317Z" transform="translate(-17.711 82.484)"/>
      <path id="Path_134" data-name="Path 134" d="M214.507,248.643a97.6,97.6,0,1,0,118.058-71.484h0a97.57,97.57,0,0,0-118.058,71.457Zm40.321,9.89a56.072,56.072,0,1,1,41.079,67.82h0a56.072,56.072,0,0,1-41.079-67.82Z" transform="translate(-91.452 26.668)" fill="#263238"/>
      <path id="Path_135" data-name="Path 135" d="M219,322.961a97.6,97.6,0,1,0,81.243-148.619A20.723,20.723,0,0,1,321.175,194.7a19.939,19.939,0,0,1-.654,5.573,20.3,20.3,0,0,1-7.326,11.094,20.932,20.932,0,0,1-12.559,4.474h-.968a56.072,56.072,0,1,1-45.03,85.587,21.115,21.115,0,0,0-12.926-9.472,20.723,20.723,0,0,0-22.633,30.927Z" transform="translate(-84.379 26.686)" fill="#407bff"/>
      <rect id="Rectangle_174" data-name="Rectangle 174" width="9.315" height="30.43" transform="translate(49.505 464.434)" fill="#407bff"/>
      <rect id="Rectangle_175" data-name="Rectangle 175" width="9.315" height="22.581" transform="translate(72.896 472.283)" fill="#407bff"/>
      <rect id="Rectangle_176" data-name="Rectangle 176" width="9.315" height="56.595" transform="translate(96.262 438.268)" fill="#407bff"/>
      <rect id="Rectangle_177" data-name="Rectangle 177" width="9.315" height="69.678" transform="translate(119.654 425.186)" fill="#407bff"/>
      <rect id="Rectangle_178" data-name="Rectangle 178" width="9.315" height="56.595" transform="translate(143.046 438.268)" fill="#407bff"/>
      <rect id="Rectangle_179" data-name="Rectangle 179" width="9.315" height="30.43" transform="translate(166.411 464.434)" fill="#407bff"/>
      <rect id="Rectangle_180" data-name="Rectangle 180" width="9.315" height="25.197" transform="translate(189.777 469.667)" fill="#407bff"/>
      <rect id="Rectangle_181" data-name="Rectangle 181" width="9.315" height="22.581" transform="translate(213.168 472.283)" fill="#407bff"/>
      <rect id="Rectangle_182" data-name="Rectangle 182" width="9.315" height="30.43" transform="translate(236.56 464.434)" fill="#407bff"/>
      <rect id="Rectangle_183" data-name="Rectangle 183" width="9.315" height="43.513" transform="translate(259.926 451.351)" fill="#407bff"/>
      <rect id="Rectangle_184" data-name="Rectangle 184" width="9.315" height="53.979" transform="translate(283.318 440.885)" fill="#407bff"/>
      <rect id="Rectangle_185" data-name="Rectangle 185" width="9.315" height="64.445" transform="translate(306.683 430.419)" fill="#407bff"/>
      <rect id="Rectangle_186" data-name="Rectangle 186" width="9.315" height="77.528" transform="translate(330.075 417.336)" fill="#407bff"/>
      <rect id="Rectangle_187" data-name="Rectangle 187" width="9.315" height="59.212" transform="translate(353.467 435.652)" fill="#407bff"/>
      <rect id="Rectangle_188" data-name="Rectangle 188" width="9.315" height="30.43" transform="translate(376.832 464.434)" fill="#407bff"/>
      <rect id="Rectangle_189" data-name="Rectangle 189" width="9.315" height="13.083" transform="translate(96.262 438.268)" fill="#263238"/>
      <rect id="Rectangle_190" data-name="Rectangle 190" width="9.315" height="26.165" transform="translate(119.654 425.186)" fill="#263238"/>
      <rect id="Rectangle_191" data-name="Rectangle 191" width="9.315" height="13.083" transform="translate(143.046 438.268)" fill="#263238"/>
      <rect id="Rectangle_192" data-name="Rectangle 192" width="9.315" height="10.466" transform="translate(283.318 440.885)" fill="#263238"/>
      <rect id="Rectangle_193" data-name="Rectangle 193" width="9.315" height="20.932" transform="translate(306.683 430.419)" fill="#263238"/>
      <rect id="Rectangle_194" data-name="Rectangle 194" width="9.315" height="34.015" transform="translate(330.075 417.336)" fill="#263238"/>
      <rect id="Rectangle_195" data-name="Rectangle 195" width="9.315" height="15.699" transform="translate(353.467 435.652)" fill="#263238"/>
      <rect id="Rectangle_196" data-name="Rectangle 196" width="351.949" height="55.706" rx="2.98" transform="translate(41.864 532.463)" fill="#407bff"/>
      <g id="Group_256" data-name="Group 256" transform="translate(298.153 551.119)" opacity="0.7">
        <path id="Path_136" data-name="Path 136" d="M287.677,314.548h-3.061v3.061h-1.884v-3.061H279.67v-1.727h3.061V309.76h1.884v3.061h3.061Z" transform="translate(-279.67 -305.495)" fill="#fff"/>
        <path id="Path_137" data-name="Path 137" d="M290.908,322.547v1.962h-1.413v-1.936a7.326,7.326,0,0,1-4.265-1.439l.785-1.753a6.752,6.752,0,0,0,3.48,1.308v-3.48c-1.936-.471-4-1.1-4-3.506,0-1.779,1.282-3.323,4-3.585V308.13h1.413v1.936a7.848,7.848,0,0,1,3.532,1.073l-.706,1.753a6.829,6.829,0,0,0-2.826-.942v3.532c1.936.445,4.029,1.073,4.029,3.48C294.937,320.872,293.655,322.285,290.908,322.547Zm-1.413-7.457V312c-1.256.183-1.779.811-1.779,1.6S288.474,314.8,289.495,315.09Zm3.218,4.029c0-.837-.759-1.256-1.805-1.544v3.087C292.19,320.454,292.713,319.878,292.713,319.119Z" transform="translate(-270.682 -308.13)" fill="#fff"/>
        <path id="Path_138" data-name="Path 138" d="M300.672,308.93v1.518l-4.762,10.675h-2.433l4.579-10.283h-4.762v2.093H291.2v-4Z" transform="translate(-261.031 -306.837)" fill="#fff"/>
        <path id="Path_139" data-name="Path 139" d="M304.413,317.381c0,2.146-1.544,3.925-4.814,3.925a7.851,7.851,0,0,1-4.579-1.413l.968-1.753a5.887,5.887,0,0,0,3.585,1.177c1.622,0,2.616-.706,2.616-1.858s-.733-1.884-3.271-1.884h-2.931l.628-6.646h7.143v1.91h-5.233l-.262,2.826h1.151C302.974,313.666,304.413,315.21,304.413,317.381Z" transform="translate(-254.856 -306.837)" fill="#fff"/>
        <path id="Path_140" data-name="Path 140" d="M301.908,314.059a3.847,3.847,0,0,1-.392,1.518l-.89,2.433h-1.413l.706-2.617a1.308,1.308,0,0,1-.811-1.308,1.414,1.414,0,1,1,2.8-.392,1,1,0,0,1,0,.392Z" transform="translate(-248.269 -301.107)" fill="#fff"/>
        <path id="Path_141" data-name="Path 141" d="M300.65,315.124c0-4,2.2-6.254,5.076-6.254s5.233,2.25,5.233,6.254-2.172,6.28-5.233,6.28S300.65,319.127,300.65,315.124Zm7.85,0c0-2.931-1.151-4.291-2.826-4.291s-2.8,1.361-2.8,4.291,1.151,4.291,2.8,4.291,2.878-1.334,2.878-4.291Z" transform="translate(-245.755 -306.934)" fill="#fff"/>
        <path id="Path_142" data-name="Path 142" d="M314.313,317.381c0,2.146-1.544,3.925-4.814,3.925a7.851,7.851,0,0,1-4.579-1.413l.968-1.753a5.887,5.887,0,0,0,3.585,1.177c1.622,0,2.617-.706,2.617-1.858s-.733-1.884-3.271-1.884h-2.931l.628-6.646h7.143v1.91h-5.233l-.262,2.826h1.151C312.979,313.666,314.313,315.21,314.313,317.381Z" transform="translate(-238.853 -306.837)" fill="#fff"/>
      </g>
      <path id="Path_143" data-name="Path 143" d="M275.313,313.864h-81.95a3.114,3.114,0,0,1-3.114-3.114h0a3.114,3.114,0,0,1,3.087-3.14h81.976a3.14,3.14,0,0,1,3.114,3.14h0A3.166,3.166,0,0,1,275.313,313.864Z" transform="translate(-126.067 242.148)" fill="#fff" opacity="0.7"/>
      <path id="Path_144" data-name="Path 144" d="M238.682,319.5H193.364a3.114,3.114,0,0,1-3.114-3.114h0a3.114,3.114,0,0,1,3.114-3.114h45.318a3.166,3.166,0,0,1,3.114,3.114h0a3.14,3.14,0,0,1-3.114,3.114Z" transform="translate(-126.067 251.298)" fill="#fff" opacity="0.7"/>
      <rect id="Rectangle_197" data-name="Rectangle 197" width="351.949" height="55.706" rx="2.98" transform="translate(41.864 608.343)" fill="#407bff"/>
      <g id="Group_257" data-name="Group 257" transform="translate(300.142 626.998)" opacity="0.7">
        <path id="Path_145" data-name="Path 145" d="M280.43,340.39h4.788v1.832H280.43Z" transform="translate(-280.43 -331.86)" fill="#fff"/>
        <path id="Path_146" data-name="Path 146" d="M290.394,351.547v1.962h-1.439v-1.936a7.849,7.849,0,0,1-4.265-1.439l.785-1.753a6.985,6.985,0,0,0,3.48,1.308v-3.48c-1.91-.471-4-1.1-4-3.506,0-1.779,1.308-3.323,4-3.585V337.13h1.439v1.936a7.85,7.85,0,0,1,3.532,1.073l-.576,1.884a7.221,7.221,0,0,0-2.826-.942v3.558c1.936.445,4.029,1.073,4.029,3.48C294.423,349.872,293.115,351.285,290.394,351.547Zm-1.439-7.457V341c-1.23.183-1.753.811-1.753,1.6S287.961,343.8,288.955,344.09Zm3.244,4.029c0-.837-.759-1.256-1.805-1.544v3.087C291.65,349.454,292.2,348.878,292.2,348.119Z" transform="translate(-273.544 -337.13)" fill="#fff"/>
        <path id="Path_147" data-name="Path 147" d="M299.98,346.381c0,2.146-1.544,3.925-4.841,3.925a7.85,7.85,0,0,1-4.579-1.413l.968-1.753a6.123,6.123,0,0,0,3.585,1.177c1.622,0,2.617-.706,2.617-1.858s-.759-1.884-3.271-1.884H291.5l.628-6.646h7.143v1.91H294.04l-.262,2.826h1.177C298.54,342.666,299.98,344.21,299.98,346.381Z" transform="translate(-264.055 -335.837)" fill="#fff"/>
        <path id="Path_148" data-name="Path 148" d="M303.819,346.381c0,2.146-1.57,3.925-4.841,3.925a7.85,7.85,0,0,1-4.579-1.413l.968-1.753a6.123,6.123,0,0,0,3.585,1.177c1.622,0,2.617-.706,2.617-1.858s-.759-1.884-3.3-1.884h-2.93l.628-6.646h7.143v1.91H297.88l-.262,2.826H298.8C302.407,342.666,303.819,344.21,303.819,346.381Z" transform="translate(-257.847 -335.837)" fill="#fff"/>
        <path id="Path_149" data-name="Path 149" d="M301.317,342.953a3.846,3.846,0,0,1-.392,1.518l-.89,2.433h-1.413l.68-2.617a1.413,1.413,0,0,1-.811-1.308,1.36,1.36,0,0,1,1.282-1.439h0a1.387,1.387,0,0,1,1.413,1.361Z" transform="translate(-251.237 -330.001)" fill="#fff"/>
        <path id="Path_150" data-name="Path 150" d="M311.12,347.349h-2.172v2.773h-2.2v-2.773H300v-1.57l5.992-7.85h2.433l-5.652,7.509h3.977v-2.46h2.119v2.46h2.172Z" transform="translate(-248.795 -335.837)" fill="#fff"/>
        <path id="Path_151" data-name="Path 151" d="M314.593,346.746c0,2.276-1.962,3.689-5,3.689s-4.945-1.413-4.945-3.689a3.035,3.035,0,0,1,1.936-2.9,2.8,2.8,0,0,1-1.518-2.616c0-2.067,1.832-3.375,4.527-3.375s4.579,1.308,4.579,3.375a2.774,2.774,0,0,1-1.57,2.616,3.061,3.061,0,0,1,1.989,2.9Zm-2.276,0c0-1.2-1.047-1.962-2.617-1.962s-2.617.759-2.617,1.962,1.021,1.962,2.617,1.962,2.617-.785,2.617-2.015Zm-5-5.233c0,1.047.863,1.727,2.276,1.727s2.355-.68,2.355-1.727-.942-1.727-2.355-1.727-2.276.5-2.276,1.6Z" transform="translate(-241.278 -335.966)" fill="#fff"/>
      </g>
      <path id="Path_152" data-name="Path 152" d="M275.313,342.864h-81.95a3.114,3.114,0,0,1-3.114-3.114h0a3.114,3.114,0,0,1,3.087-3.14h81.976a3.14,3.14,0,0,1,3.114,3.14h0A3.166,3.166,0,0,1,275.313,342.864Z" transform="translate(-126.067 289.028)" fill="#fff" opacity="0.7"/>
      <path id="Path_153" data-name="Path 153" d="M238.682,348.5H193.364a3.114,3.114,0,0,1-3.114-3.114h0a3.114,3.114,0,0,1,3.114-3.114h45.318a3.166,3.166,0,0,1,3.114,3.114h0a3.14,3.14,0,0,1-3.114,3.114Z" transform="translate(-126.067 298.177)" fill="#fff" opacity="0.7"/>
      <rect id="Rectangle_198" data-name="Rectangle 198" width="351.949" height="55.706" rx="2.98" transform="translate(41.864 684.222)" fill="#407bff"/>
      <g id="Group_258" data-name="Group 258" transform="translate(300.142 702.878)" opacity="0.7">
        <path id="Path_154" data-name="Path 154" d="M288.437,372.548h-3.087v3.061h-1.858v-3.061H280.43v-1.727h3.061V367.76h1.858v3.061h3.087Z" transform="translate(-280.43 -363.495)" fill="#fff"/>
        <path id="Path_155" data-name="Path 155" d="M291.684,380.547v1.962h-1.439v-1.936a7.85,7.85,0,0,1-4.265-1.439l.785-1.753a6.986,6.986,0,0,0,3.48,1.308v-3.48c-1.91-.471-4-1.1-4-3.506,0-1.779,1.308-3.323,4-3.585V366.13h1.439v1.936a7.85,7.85,0,0,1,3.532,1.073l-.706,1.753a7.219,7.219,0,0,0-2.826-.942v3.532c1.936.445,4.029,1.073,4.029,3.48C295.713,378.872,294.405,380.285,291.684,380.547Zm-1.439-7.457V370c-1.23.183-1.753.811-1.753,1.6S289.251,372.8,290.245,373.09Zm3.245,4.029c0-.837-.759-1.256-1.805-1.544v3.087C292.966,378.454,293.489,377.878,293.489,377.119Z" transform="translate(-271.458 -366.13)" fill="#fff"/>
        <path id="Path_156" data-name="Path 156" d="M296.677,366.93v12.193h-2.25V368.84H291.81v-1.91Z" transform="translate(-262.034 -364.837)" fill="#fff"/>
        <path id="Path_157" data-name="Path 157" d="M304.513,375.746c0,2.276-1.962,3.689-5,3.689s-4.945-1.413-4.945-3.689a3.035,3.035,0,0,1,1.936-2.9,2.8,2.8,0,0,1-1.518-2.617c0-2.067,1.832-3.375,4.527-3.375s4.579,1.308,4.579,3.375a2.774,2.774,0,0,1-1.544,2.616A3.061,3.061,0,0,1,304.513,375.746Zm-2.276,0c0-1.2-1.047-1.962-2.617-1.962s-2.616.759-2.616,1.962,1.02,1.962,2.616,1.962,2.617-.785,2.617-2.015Zm-5-5.233c0,1.047.863,1.727,2.276,1.727s2.355-.68,2.355-1.727-.942-1.727-2.355-1.727-2.276.5-2.276,1.6Z" transform="translate(-257.573 -364.966)" fill="#fff"/>
        <path id="Path_158" data-name="Path 158" d="M301.855,371.937a3.846,3.846,0,0,1-.392,1.518l-.89,2.433h-1.491l.706-2.617a1.335,1.335,0,0,1-.837-1.308,1.413,1.413,0,0,1,2.826,0h0Z" transform="translate(-250.493 -358.985)" fill="#fff"/>
        <path id="Path_159" data-name="Path 159" d="M309.9,377.4v1.91h-8.975v-1.544l4.841-4.605a3.35,3.35,0,0,0,1.387-2.617c0-1.125-.785-1.753-2.276-1.753a3.506,3.506,0,0,0-2.852,1.256l-1.57-1.2a5.6,5.6,0,0,1,4.631-2.015c2.617,0,4.343,1.334,4.343,3.48a4.893,4.893,0,0,1-2.015,3.846l-3.271,3.114Z" transform="translate(-248.067 -365.02)" fill="#fff"/>
        <path id="Path_160" data-name="Path 160" d="M304.54,373.124c0-4,2.172-6.254,5.076-6.254s5.1,2.25,5.1,6.254-2.2,6.28-5.1,6.28S304.54,377.127,304.54,373.124Zm7.85,0c0-2.931-1.151-4.291-2.826-4.291s-2.8,1.361-2.8,4.291,1.151,4.291,2.8,4.291,2.878-1.334,2.878-4.291Z" transform="translate(-241.455 -364.934)" fill="#fff"/>
      </g>
      <path id="Path_161" data-name="Path 161" d="M275.313,371.864h-81.95a3.114,3.114,0,0,1-3.114-3.114h0a3.114,3.114,0,0,1,3.087-3.14h81.976a3.14,3.14,0,0,1,3.114,3.14h0a3.166,3.166,0,0,1-3.114,3.114Z" transform="translate(-126.067 335.907)" fill="#fff" opacity="0.7"/>
      <path id="Path_162" data-name="Path 162" d="M238.682,377.5H193.364a3.114,3.114,0,0,1-3.114-3.114h0a3.114,3.114,0,0,1,3.114-3.114h45.318a3.166,3.166,0,0,1,3.114,3.114h0a3.14,3.14,0,0,1-3.114,3.114Z" transform="translate(-126.067 345.057)" fill="#fff" opacity="0.7"/>
    </g>
    <g id="Home_1" data-name="Home 1" transform="translate(357.769 169.398)">
      <rect id="Rectangle_199" data-name="Rectangle 199" width="406.242" height="762.378" rx="3.5" fill="#fff"/>
      <rect id="background" width="406.242" height="730.822" fill="#fff"/>
      <path id="Path_2" data-name="Path 2" d="M171.4,116.12H577.642v68.4H171.4Z" transform="translate(-171.4 -116.12)" fill="#1c3879"/>
      <g id="Group_9" data-name="Group 9" transform="translate(325.548 661.667)">
        <g transform="matrix(1, 0, 0, 1, -627.21, -747.9)" filter="url(#Ellipse_1-2)">
          <ellipse id="Ellipse_1-2-2" data-name="Ellipse 1-2" cx="27.84" cy="28.18" rx="27.84" ry="28.18" transform="translate(627.21 747.9)" fill="#1c3879"/>
        </g>
        <path id="add_FILL0_wght700_GRAD0_opsz48" data-name="add FILL0 wght700 GRAD0 opsz48" d="M301.41,388.014a2.041,2.041,0,0,1,2.015-2.093h9.106v-9.158a2.093,2.093,0,0,1,4.186,0h0V386h9.053a2.119,2.119,0,0,1,0,4.212h-9.053v9.158a2.093,2.093,0,1,1-4.186,0v-9.158H303.5a2.041,2.041,0,0,1-2.093-2.015Z" transform="translate(-286.784 -359.834)" fill="#eef2f5"/>
      </g>
      <g id="Group_236" data-name="Group 236" transform="translate(15.856 20.514)">
        <path id="help_FILL1_wght700_GRAD0_opsz48" data-name="help FILL1 wght700 GRAD0 opsz48" d="M309.584,139.64a.89.89,0,0,0,.654-.288,1.02,1.02,0,0,0,.288-.706.955.955,0,1,0-.942.994Zm-.89-3.061h1.518a3.716,3.716,0,0,1,.131-.942,2.3,2.3,0,0,1,.785-.994,2.957,2.957,0,0,0,.863-1.02,2.617,2.617,0,0,0,.262-1.2,2.381,2.381,0,0,0-2.617-2.617,3.349,3.349,0,0,0-3.166,2.2l1.413.523a1.962,1.962,0,0,1,.68-.916,1.439,1.439,0,0,1,.916-.314,1.308,1.308,0,0,1,.863.314,1.072,1.072,0,0,1,.366.811,1.961,1.961,0,0,1-.236.785,3.378,3.378,0,0,1-.654.706,3.584,3.584,0,0,0-.89,1.1,3.219,3.219,0,0,0-.314,1.544Zm.837,7.091a8.635,8.635,0,0,1-3.428-.706,8.74,8.74,0,0,1-4.684-4.736,9.26,9.26,0,0,1-.68-3.48,8.9,8.9,0,0,1,2.617-6.306,9.342,9.342,0,0,1,2.8-1.91,8.189,8.189,0,0,1,3.428-.68,8.294,8.294,0,0,1,3.454.68,9.106,9.106,0,0,1,4.684,4.736,9.368,9.368,0,0,1,.68,3.48,9.263,9.263,0,0,1-.68,3.48,9.368,9.368,0,0,1-1.884,2.826,8.634,8.634,0,0,1-6.254,2.617Z" transform="translate(21.825 -120.906)" fill="#eef2f5"/>
        <g id="appname-3" transform="translate(53.665)">
          <text id="Coinbank_Wallet" data-name="Coinbank Wallet" transform="translate(0 19)" fill="#eef2f5" font-size="20" font-family="SegoeUI-Bold, Segoe UI" font-weight="700" letter-spacing="0.01em"><tspan x="0" y="0">Coinbank </tspan><tspan y="0" letter-spacing="-0.01em">W</tspan><tspan y="0">allet</tspan></text>
        </g>
        <g id="Coinbank_Wallet-2" data-name="Coinbank Wallet" transform="translate(0 2.293)">
          <g id="Group_260" data-name="Group 260" transform="translate(14.81)" clip-path="url(#clip-path)">
            <g id="Group_11" data-name="Group 11">
              <g id="Group_11-2" data-name="Group 11-2">
                <path id="Path_3" data-name="Path 3" d="M190.446,125.41l7.352,7.431-7.352,7.431-7.326-7.431Z" transform="translate(-183.12 -125.41)" fill="#00abff"/>
              </g>
            </g>
          </g>
          <g id="Group_261" data-name="Group 261" transform="translate(7.405 7.666)" clip-path="url(#clip-path-2)">
            <g id="Group_12" data-name="Group 12" transform="translate(0.026 -0.026)">
              <g id="Group_12-2" data-name="Group 12-2">
                <path id="Path_5" data-name="Path 5" d="M187.6,128.356l7.3,7.3-2.46,2.433-.5.471-.549.392-.576.34-.6.288-.628.235-.654.157h-2.669l-.654-.157a7.481,7.481,0,0,1-1.256-.523l-.576-.34-.523-.392-.5-.471-2.46-2.46,7.3-7.3Z" transform="translate(-180.3 -128.33)" fill="#ffd93d"/>
              </g>
            </g>
          </g>
          <g id="Group_262" data-name="Group 262" transform="translate(22.24 7.666)" clip-path="url(#clip-path-2)">
            <g id="Group_13" data-name="Group 13" transform="translate(0.052 -0.026)">
              <g id="Group_13-2" data-name="Group 13-2">
                <path id="Path_7" data-name="Path 7" d="M193.28,128.356l7.274,7.3-2.433,2.433-.5.471-.549.392-.576.34-.6.288-.628.235-.654.157H191.92l-.654-.157-.628-.235-.6-.288-.576-.34-.549-.392-.5-.471-2.433-2.46,7.274-7.3Z" transform="translate(-185.98 -128.33)" fill="#36ae7c"/>
              </g>
            </g>
          </g>
          <g id="Group_263" data-name="Group 263" transform="translate(29.698)" clip-path="url(#clip-path)">
            <g id="Group_14" data-name="Group 14">
              <g id="Group_14-2" data-name="Group 14-2">
                <path id="Path_9" data-name="Path 9" d="M196.136,125.41l7.352,7.431-7.352,7.431-7.326-7.431Z" transform="translate(-188.81 -125.41)" fill="#ff005c"/>
              </g>
            </g>
          </g>
          <g id="Group_264" data-name="Group 264" clip-path="url(#clip-path)">
            <g id="Group_15" data-name="Group 15" transform="translate(0)">
              <g id="Group_15-2" data-name="Group 15-2">
                <path id="Path_11" data-name="Path 11" d="M184.786,125.41l7.352,7.431-7.352,7.431-7.326-7.431Z" transform="translate(-177.46 -125.41)" fill="#db4242"/>
              </g>
            </g>
          </g>
        </g>
        <g id="more_vert_FILL1_wght700_GRAD0_opsz48" data-name="more vert FILL1 wght700 GRAD0 opsz48" transform="translate(370.762 4.919)">
          <g id="Group_10" data-name="Group 10">
            <ellipse id="Ellipse_2" data-name="Ellipse 2" cx="1.884" cy="1.91" rx="1.884" ry="1.91" fill="#eef2f5"/>
            <ellipse id="Ellipse_5" data-name="Ellipse 5" cx="1.884" cy="1.91" rx="1.884" ry="1.91" transform="translate(0 6.855)" fill="#eef2f5"/>
            <ellipse id="Ellipse_6" data-name="Ellipse 6" cx="1.884" cy="1.91" rx="1.884" ry="1.91" transform="translate(0 13.711)" fill="#eef2f5"/>
          </g>
        </g>
      </g>
    </g>
    <g id="freepik--Character--inject-250" transform="translate(152.661 283.16)">
      <g id="freepik--group--inject-250">
        <path id="Path_163" data-name="Path 163" d="M128.308,227.194a2.093,2.093,0,0,1-1.779,2.329h-.445l-23.941-.628a2.773,2.773,0,0,1-2.617-2.486l-4.082-47.333a2.433,2.433,0,0,1,2.224-2.617h0l23.889.654a3.061,3.061,0,0,1,2.617,2.8Z" transform="translate(-89.088 -132.341)" fill="#263238"/>
        <path id="Path_164" data-name="Path 164" d="M121.621,179.512,125.7,227.29a1.832,1.832,0,0,1-1.361,2.172,2.119,2.119,0,0,1-.576,0l-20.252-.549c-1.361,0-3.846-.863-3.951-2.2L95.43,178.78c0-1.361,2.25-2.381,3.611-2.329l20.252.549A2.46,2.46,0,0,1,121.621,179.512Z" transform="translate(-89.099 -132.358)" fill="#fff" opacity="0.5"/>
        <path id="Path_165" data-name="Path 165" d="M117.317,229.707l-2.8-9.21a62.8,62.8,0,0,0,2.8-10.2c.235-3.114-8.033-27.343-8.033-27.343s-9.053,7.169-14.5,10.78,3.218,27,4.579,27.6,4,2.146,4,2.146l1.805,7.509Z" transform="translate(-93.01 -121.849)" fill="#e4897b"/>
        <path id="Path_166" data-name="Path 166" d="M96.626,209.376c2.8,10.832,14.914,54.633,29.41,60.52,3.794,1.544,8.268.576,13.083-1.858,15.7-8.137,33.492-32.68,33.492-32.68l-3.585-17.9-3.3-16.641c-13.083,6.463-28.128,37.966-32.288,37.73-3.506-.183-12.219-27.16-14.783-35.375a2.616,2.616,0,0,0-3.14-1.675l-16.955,4.788A2.616,2.616,0,0,0,96.626,209.376Z" transform="translate(-87.26 -92.962)" fill="#407bff"/>
        <path id="Path_167" data-name="Path 167" d="M112.6,198.93l1.413,5.992-15.595,4.422-1.858-6.515Z" transform="translate(-87.272 -96.017)" fill="#407bff"/>
        <path id="Path_168" data-name="Path 168" d="M112.6,198.93l1.413,5.992-15.595,4.422-1.858-6.515Z" transform="translate(-87.272 -96.017)" opacity="0.2"/>
        <path id="Path_169" data-name="Path 169" d="M112.78,257.757c15.7-8.137,33.492-32.68,33.492-32.68l-3.585-17.9C134.6,214.689,115.344,234.784,112.78,257.757Z" transform="translate(-61.052 -82.681)" opacity="0.2"/>
        <path id="Path_170" data-name="Path 170" d="M158.291,346.342,158.16,323.5a1.622,1.622,0,0,1,1.282-1.6l16.746-3.794a2.774,2.774,0,0,1,3.3,2.119,2.33,2.33,0,0,1,0,.6c0,7.4-.5,12.795-.471,22.084,0,5.7.733,22.947.759,30.849s-7.85,8.949-8.478,5.73c-3.244-14.469-7.666-25.38-11.853-29.985a4.554,4.554,0,0,1-1.151-3.166Z" transform="translate(12.306 96.537)" fill="#263238"/>
        <path id="Path_171" data-name="Path 171" d="M159.795,248.46l-7.379,38.7s-58.322,94.4-58.3,148.907c0,65.125,169.891,27.552,169.891,27.552V433.632s-101.521,8.739-110.679-1.439c-11.094-12.376,57.354-108.036,57.354-108.036Z" transform="translate(-91.217 -15.951)" fill="#263238"/>
        <path id="Path_172" data-name="Path 172" d="M94.12,436.049c0,35.9,51.65,40.582,97.989,37.573a542.725,542.725,0,0,0,68.71-9.367c2.041-.392,3.166-.654,3.166-.654V433.615l-3.715.288c-11.539.942-47.49,3.532-74.676,3.14-16.17-.209-29.253-1.544-32.262-4.893-5.469-6.07,8.294-32.262,23.706-57.328h0c15.935-25.9,33.649-50.656,33.649-50.656l-22.293-33.2L159.821,248.47l-7.4,38.7S94.094,381.547,94.12,436.049Z" transform="translate(-91.217 -15.935)" fill="#fff" opacity="0.2"/>
        <path id="Path_173" data-name="Path 173" d="M129.08,322.383l6.515,36.631a542.717,542.717,0,0,0,68.71-9.263l-.55-30.352C192.217,320.185,156.266,322.775,129.08,322.383Z" transform="translate(-34.703 98.726)" opacity="0.2"/>
        <path id="Path_174" data-name="Path 174" d="M137.42,308.464s-9.472,22.319-11.251,42.44c15.935-25.9,33.649-50.656,33.649-50.656l-22.293-33.2-11.748-3.794S123.16,278.5,137.42,308.464Z" transform="translate(-40.348 7.958)" opacity="0.2"/>
        <path id="Path_175" data-name="Path 175" d="M157.491,405.772h22.842a1.622,1.622,0,0,1,1.6,1.308l3.715,16.746a2.747,2.747,0,0,1-2.119,3.271H182.9c-7.379-.131-12.769-.576-22.057-.576-5.73,0-22.973.6-30.875.6s-8.922-7.85-5.678-8.53c14.5-3.166,25.406-7.536,30.038-11.7a4.527,4.527,0,0,1,3.166-1.125Z" transform="translate(-45.243 238.343)" fill="#263238"/>
        <path id="Path_176" data-name="Path 176" d="M221.02,259.79s5.05,18.97,0,105.839C213.17,499.071,188.5,676.576,188.5,676.576l-28.782-5.233s3.689-265.63-.183-338.945c0,0-40.609-36.422-40.321-73.865S221.02,259.79,221.02,259.79Z" transform="translate(-50.659 -26.051)" fill="#263238"/>
        <path id="Path_177" data-name="Path 177" d="M221.02,259.79s5.05,18.97,0,105.839C213.17,499.071,188.5,676.576,188.5,676.576l-28.782-5.233s3.689-265.63-.183-338.945c0,0-40.609-36.422-40.321-73.865S221.02,259.79,221.02,259.79Z" transform="translate(-50.659 -26.051)" fill="#fff" opacity="0.2"/>
        <path id="Path_178" data-name="Path 178" d="M118.41,328.681a3.349,3.349,0,0,0,3.3,3.4h0l94.718,2.119,6.725.157a3.375,3.375,0,0,0,3.48-3.166l1.91-24.935,1.02-13.423,4.867-63.948,1.02-13.5c-46.391-34.643-105.211-8.87-105.211-8.87C119.692,239.771,118.541,310.548,118.41,328.681Z" transform="translate(-51.952 -98.657)" fill="#407bff"/>
        <path id="Path_179" data-name="Path 179" d="M225.311,251.515,119.42,248.27l-1.23,6.306,107.121,3.48Z" transform="translate(-52.307 -16.258)" fill="#407bff"/>
        <path id="Path_180" data-name="Path 180" d="M225.311,251.515,119.42,248.27l-1.23,6.306,107.121,3.48Z" transform="translate(-52.307 -16.258)" opacity="0.2"/>
        <path id="Path_181" data-name="Path 181" d="M166.783,273.318l4.867-63.948a22.739,22.739,0,0,0-7.85,4.37S147.264,239.486,166.783,273.318Z" transform="translate(10.852 -79.141)" opacity="0.2"/>
        <path id="Path_182" data-name="Path 182" d="M155.88,266.885l6.724.157a3.375,3.375,0,0,0,3.48-3.166l1.91-24.935a235.86,235.86,0,0,0-12.115,27.945Z" transform="translate(8.62 -31.34)" opacity="0.2"/>
        <path id="Path_184" data-name="Path 184" d="M177.144,230.218c-9.105,8.294-31.4,5.233-31.4,5.233s-13.946-3.82-11.016-8.19c8.216-1.361,12.193-5.233,13.841-10.1a24.1,24.1,0,0,0,.811-9.367,44.025,44.025,0,0,0-.68-5.233L176.333,182.1C172.722,195.6,168.222,220.432,177.144,230.218Z" transform="translate(-26.224 -123.223)" fill="#e4897b"/>
        <path id="Path_185" data-name="Path 185" d="M161.127,187.07c-1.1,16.563-14.731,21.142-21.377,22.057a24.1,24.1,0,0,0,.811-9.367Z" transform="translate(-17.455 -115.189)" opacity="0.2"/>
        <path id="Path_186" data-name="Path 186" d="M168.419,165.69s7.719,24.936-4.343,36.762-19.205-35.637-19.205-35.637Z" transform="translate(-9.178 -149.751)" fill="#263238"/>
        <path id="Path_187" data-name="Path 187" d="M144.263,230.433a23.549,23.549,0,0,0,27.866,5,26.165,26.165,0,0,0,12.926-14.208c.34-.837.6-1.727.863-2.617,4.317-16.589,2.355-44.167-15.7-51.912a25.354,25.354,0,0,0-33.387,13.083h0a24.935,24.935,0,0,0-2.093,11.617C135.5,209.867,135.052,220.8,144.263,230.433Z" transform="translate(-25.63 -151.566)" fill="#e4897b"/>
        <path id="Path_188" data-name="Path 188" d="M145.45,178.617c0,1.491.733,2.747,1.727,2.747s1.805-1.177,1.858-2.617S148.276,176,147.282,176,145.476,177.073,145.45,178.617Z" transform="translate(-8.24 -133.084)" fill="#263238"/>
        <path id="Path_189" data-name="Path 189" d="M152.008,178.73c-.131,1.491.759,2.747,1.727,2.773s1.805-1.2,1.858-2.617-.759-2.747-1.753-2.747S152.008,177.291,152.008,178.73Z" transform="translate(2.34 -132.858)" fill="#263238"/>
        <path id="Path_190" data-name="Path 190" d="M150.1,177.37a52.8,52.8,0,0,0,6.96,13.083,8.713,8.713,0,0,1-7.3,1.2Z" transform="translate(-1.273 -130.87)" fill="#de5753"/>
        <path id="Path_191" data-name="Path 191" d="M143.952,177.907a.916.916,0,0,0,.863-.34,7.17,7.17,0,0,1,5.73-2.852.89.89,0,0,0,.157-1.753h0a8.792,8.792,0,0,0-7.274,3.506.863.863,0,0,0,0,1.23h0A1.309,1.309,0,0,0,143.952,177.907Z" transform="translate(-11.923 -138.001)" fill="#263238"/>
        <path id="Path_192" data-name="Path 192" d="M158.693,178.9h.523a.916.916,0,0,0,.471-1.177h0a8.765,8.765,0,0,0-6.28-5.233.916.916,0,0,0-.994.759h0a.916.916,0,0,0,.759.994h0a7.143,7.143,0,0,1,4.893,4.134.916.916,0,0,0,.628.523Z" transform="translate(3.008 -138.761)" fill="#263238"/>
        <path id="Path_193" data-name="Path 193" d="M154.386,166.07l1.23,8.137a6.07,6.07,0,0,0-2.852,7.85c2.826,6.8-.785,17.557-5.94,21.953,0,0-.235-2.957-2.617-2.2s-1.387,16.275,3.715,23.549a53.953,53.953,0,0,1-13.475-24.1c-4.291-14.94-3.846-26.008-.916-31.922Z" transform="translate(-31.148 -149.136)" fill="#263238"/>
        <path id="Path_194" data-name="Path 194" d="M132.148,187.772a17.609,17.609,0,0,0,9.943,9.105c5.809,2.093,9.184-3.009,7.85-8.739-1.125-5.1-5.521-12.481-11.539-12.036a7.85,7.85,0,0,0-7.248,8.425,8.374,8.374,0,0,0,.994,3.244Z" transform="translate(-31.387 -132.951)" fill="#e4897b"/>
        <path id="Path_195" data-name="Path 195" d="M158.053,190.881a57.951,57.951,0,0,0-5.495,6.384l-1.308-.68c-5.966-3.14-7.666-6.567-7.85-9.42a8.87,8.87,0,0,1,.89-4,7.456,7.456,0,0,1,1.282-1.962,31.633,31.633,0,0,0,10.466,8.582,17.537,17.537,0,0,0,2.015,1.1Z" transform="translate(-11.555 -124.678)" fill="#263238"/>
        <path id="Path_196" data-name="Path 196" d="M155.4,189.782l-1.648,1.832c-5.6-2.983-9.158-5.809-10.021-8.451a7.458,7.458,0,0,1,1.282-1.962A32,32,0,0,0,155.4,189.782Z" transform="translate(-11.021 -124.678)" fill="#fff"/>
        <path id="Path_197" data-name="Path 197" d="M151.21,192.9c-5.966-3.14-7.666-6.567-7.85-9.42a22.321,22.321,0,0,1,5.913,4.814A8.085,8.085,0,0,1,151.21,192.9Z" transform="translate(-11.619 -120.993)" fill="#de5753"/>
        <path id="Path_198" data-name="Path 198" d="M131.433,192.048a24.046,24.046,0,0,1,9.106-22.947c12.167-10.178,46.339-14.94,51.519,0s-20.043,28.782-38.358,15.438Z" transform="translate(-31.405 -159.598)" fill="#263238"/>
        <path id="Path_199" data-name="Path 199" d="M176.2,195.71l-26.532,11.958-1.544-9.577-9.864,3.428a8.007,8.007,0,0,0-5.233,8.4l1.1,10.466,13.449-7.352,6.7,9.472,31.869-15.333Z" transform="translate(-28.396 -101.223)" fill="#407bff"/>
        <path id="Path_200" data-name="Path 200" d="M176.2,195.71l-26.532,11.958-1.544-9.577-9.864,3.428a8.007,8.007,0,0,0-5.233,8.4l1.1,10.466,13.449-7.352,6.7,9.472,31.869-15.333Z" transform="translate(-28.396 -101.223)" fill="#fff" opacity="0.7"/>
        <path id="Path_201" data-name="Path 201" d="M151.12,252.065s.6,14.155,18.891,20.2a63.843,63.843,0,0,0-1.465-20.3Z" transform="translate(0.925 -10.293)" opacity="0.2"/>
        <path id="Path_202" data-name="Path 202" d="M178.521,204.21c16.222,15.7,40.373,65.91,33.2,87.627-6.07,18.473-34.355,46.26-42.754,54.215a3.166,3.166,0,0,1-4.448,0h0l-10.047-11.042a3.166,3.166,0,0,1-.209-4.029c6.541-8.608,31.241-41.55,32.916-48.3,1.936-7.85-19.127-38.28-19.127-38.28a68.291,68.291,0,0,1-.392-26.767C170.41,203.87,178.521,204.21,178.521,204.21Z" transform="translate(5.001 -87.482)" fill="#407bff"/>
        <path id="Path_203" data-name="Path 203" d="M155.933,253.66l-3.663,3.794s5.7,8.635,12.612,10.466l1.805-1.858Z" transform="translate(2.784 -7.545)" fill="#407bff"/>
        <path id="Path_204" data-name="Path 204" d="M155.933,253.66l-3.663,3.794s5.7,8.635,12.612,10.466l1.805-1.858Z" transform="translate(2.784 -7.545)" opacity="0.2"/>
      </g>
    </g>
  </g>
</svg>
